<svg width="3500" height="3493" viewBox="0 0 3500 3493" fill="none" xmlns="http://www.w3.org/2000/svg">
<path d="M1777.12 2922.2V3033.67C1777.12 3044.31 1768.5 3052.94 1757.86 3052.94H1725.14C1715.16 3052.94 1706.95 3045.34 1705.97 3035.64C1705.92 3034.98 1705.87 3034.33 1705.87 3033.67V3011.69C1705.87 3009.62 1707.56 3007.94 1709.63 3007.94H1724.63C1726.69 3007.94 1728.38 3009.62 1728.38 3011.69V3026.69C1728.38 3028.75 1730.06 3030.44 1732.12 3030.44H1750.88C1752.94 3030.44 1754.63 3028.75 1754.63 3026.69V2992.94C1754.63 2990.87 1752.94 2989.19 1750.88 2989.19H1725.14C1714.5 2989.19 1705.87 2980.56 1705.87 2969.92V2922.2C1705.87 2911.56 1714.5 2902.94 1725.14 2902.94H1757.86C1768.5 2902.94 1777.12 2911.56 1777.12 2922.2ZM1750.88 2925.44H1732.12C1730.06 2925.44 1728.38 2927.12 1728.38 2929.19V2962.94C1728.38 2965 1730.06 2966.69 1732.12 2966.69H1750.88C1752.94 2966.69 1754.63 2965 1754.63 2962.94V2929.19C1754.63 2927.12 1752.94 2925.44 1750.88 2925.44Z" fill="white"/>
<path d="M1561.97 3039.3L1547.13 3037.17C1545.09 3036.88 1543.66 3034.96 1543.95 3032.92L1545.39 3022.9L1547.52 3008.05L1564.23 2891.87C1564.52 2889.83 1566.43 2888.4 1568.47 2888.7L1583.32 2890.83C1585.36 2891.12 1586.79 2893.03 1586.5 2895.08L1570.86 3003.83C1570.57 3005.87 1572 3007.78 1574.04 3008.08L1587.03 3009.95C1589.07 3010.24 1590.5 3012.15 1590.21 3014.19L1588.08 3029.04C1587.78 3031.08 1585.87 3032.51 1583.83 3032.22L1570.84 3030.35C1568.8 3030.06 1566.89 3031.49 1566.59 3033.53L1566.22 3036.13C1565.93 3038.17 1564.02 3039.6 1561.97 3039.3Z" fill="white"/>
<path d="M1405.35 3000.49C1404.94 3000.71 1404.53 3000.93 1404.08 3001.14C1399.91 3003.19 1395.02 3003.71 1390.25 3002.31L1358.86 2993.09C1348.65 2990.1 1342.81 2979.39 1345.8 2969.18L1377.21 2862.23C1380.21 2852.02 1390.91 2846.17 1401.12 2849.17L1432.51 2858.39C1433.14 2858.57 1433.76 2858.8 1434.38 2859.03C1443.41 2862.71 1448.39 2872.72 1445.57 2882.3L1414.17 2989.25C1412.73 2994.16 1409.47 2998.09 1405.35 3000.49ZM1369.36 2968.82C1368.78 2970.8 1369.92 2972.89 1371.9 2973.47L1389.89 2978.76C1391.87 2979.34 1393.97 2978.19 1394.55 2976.21L1422.02 2882.66C1422.6 2880.68 1421.45 2878.59 1419.47 2878.01L1401.48 2872.73C1399.5 2872.14 1397.41 2873.29 1396.83 2875.27L1369.36 2968.82Z" fill="white"/>
<path d="M1276.57 2836.31L1278.91 2831.19C1279.77 2829.32 1278.93 2827.08 1277.06 2826.22L1225.89 2802.86C1224.01 2802 1223.18 2799.76 1224.04 2797.89L1230.27 2784.24C1231.13 2782.37 1233.36 2781.53 1235.24 2782.39L1292.76 2808.66C1302.44 2813.08 1306.7 2824.51 1302.28 2834.19L1279.34 2884.42C1278.8 2885.61 1278.12 2886.75 1277.4 2887.76C1272.08 2895.01 1262.26 2897.79 1253.81 2893.94L1210.41 2874.11C1200.73 2869.69 1196.46 2858.27 1200.88 2848.59L1215.47 2816.65C1216.33 2814.77 1218.56 2813.94 1220.44 2814.8L1271.61 2838.16C1273.48 2839.02 1275.72 2838.19 1276.57 2836.31ZM1224.25 2851.58C1223.4 2853.46 1224.23 2855.69 1226.11 2856.55L1256.81 2870.57C1258.68 2871.43 1260.92 2870.59 1261.78 2868.72L1264.11 2863.6C1264.97 2861.72 1264.13 2859.49 1262.26 2858.63L1231.56 2844.61C1229.68 2843.75 1227.45 2844.59 1226.59 2846.46L1224.25 2851.58Z" fill="white"/>
<path d="M1067.01 2852.74C1066.55 2852.84 1066.1 2852.94 1065.61 2853.01C1061.03 2853.8 1056.19 2852.92 1052.01 2850.23L1024.49 2832.54C1015.54 2826.79 1012.94 2814.87 1018.7 2805.92L1078.96 2712.15C1084.71 2703.2 1096.63 2700.6 1105.58 2706.36L1133.11 2724.05C1133.66 2724.4 1134.19 2724.79 1134.71 2725.19C1142.34 2731.26 1144.3 2742.27 1138.9 2750.67L1078.64 2844.44C1075.87 2848.74 1071.64 2851.59 1067.01 2852.74ZM1041.4 2812.21C1040.29 2813.95 1040.79 2816.28 1042.53 2817.39L1058.3 2827.53C1060.04 2828.64 1062.37 2828.14 1063.48 2826.4L1116.2 2744.38C1117.31 2742.64 1116.8 2740.31 1115.07 2739.2L1099.3 2729.06C1097.56 2727.95 1095.23 2728.45 1094.11 2730.19L1041.4 2812.21Z" fill="white"/>
<path d="M868.596 2709.8C867.037 2708.45 866.867 2706.06 868.218 2704.51L878.041 2693.17C879.391 2691.61 881.772 2691.44 883.331 2692.79L896.651 2704.33C898.209 2705.68 900.59 2705.51 901.94 2703.95L919.131 2684.12C920.481 2682.56 920.311 2680.18 918.752 2678.83L907.983 2669.49C906.424 2668.14 906.254 2665.76 907.604 2664.21L917.427 2652.87C918.778 2651.31 921.158 2651.14 922.717 2652.49L933.487 2661.82C935.045 2663.17 937.426 2663 938.776 2661.44L980.524 2613.26C981.874 2611.71 984.255 2611.54 985.814 2612.89L997.15 2622.71C998.708 2624.06 998.879 2626.44 997.528 2628L955.781 2676.18C954.43 2677.74 954.6 2680.12 956.159 2681.47L964.094 2688.34C965.653 2689.69 965.823 2692.08 964.473 2693.63L954.65 2704.97C953.299 2706.53 950.919 2706.7 949.36 2705.35L941.425 2698.47C939.866 2697.12 937.486 2697.29 936.135 2698.85L914.371 2723.97C907.403 2732.01 895.236 2732.88 887.195 2725.91L868.596 2709.8Z" fill="white"/>
<path d="M785.386 2626.41L775.563 2615.08C774.212 2613.52 774.382 2611.14 775.941 2609.79L812.784 2577.86C814.343 2576.51 814.513 2574.13 813.162 2572.57L786.487 2541.79C779.519 2533.75 780.389 2521.58 788.431 2514.61L830.162 2478.45C838.204 2471.48 850.37 2472.35 857.338 2480.4L898.748 2528.19C900.099 2529.74 899.929 2532.12 898.37 2533.48L790.676 2626.79C789.117 2628.14 786.736 2627.97 785.386 2626.41ZM830.167 2557.84C831.517 2559.4 833.898 2559.57 835.456 2558.22L866.631 2531.21C868.19 2529.85 868.36 2527.47 867.009 2525.92L844.908 2500.41C843.557 2498.85 841.177 2498.68 839.618 2500.03L808.443 2527.04C806.885 2528.39 806.714 2530.77 808.065 2532.33L830.167 2557.84Z" fill="white"/>
<path d="M633.894 2422.6C632.779 2420.86 633.286 2418.53 635.021 2417.42L647.64 2409.31C649.375 2408.19 651.707 2408.7 652.822 2410.43L662.351 2425.26C663.466 2427 665.798 2427.5 667.533 2426.39L689.616 2412.2C691.351 2411.08 691.858 2408.75 690.743 2407.01L683.039 2395.03C681.924 2393.29 682.431 2390.96 684.166 2389.84L696.785 2381.73C698.52 2380.62 700.852 2381.13 701.967 2382.86L709.671 2394.85C710.786 2396.59 713.118 2397.09 714.853 2395.98L768.483 2361.51C770.218 2360.4 772.55 2360.9 773.665 2362.64L781.775 2375.26C782.89 2376.99 782.383 2379.32 780.648 2380.44L727.018 2414.91C725.283 2416.02 724.775 2418.35 725.89 2420.09L731.567 2428.92C732.682 2430.66 732.175 2432.99 730.44 2434.1L717.821 2442.21C716.086 2443.33 713.754 2442.82 712.639 2441.09L706.962 2432.25C705.847 2430.52 703.515 2430.01 701.78 2431.12L673.822 2449.09C664.87 2454.85 652.951 2452.25 647.198 2443.3L633.894 2422.6Z" fill="white"/>
<path d="M562.768 2277.76C560.892 2278.62 558.656 2277.79 557.799 2275.91L551.568 2262.27C550.711 2260.39 551.545 2258.15 553.421 2257.3L683.044 2198.1C684.92 2197.24 687.156 2198.08 688.013 2199.95L694.244 2213.6C695.101 2215.47 694.267 2217.71 692.391 2218.57L622.121 2250.66C620.245 2251.52 619.411 2253.75 620.268 2255.63L625.72 2267.57C626.577 2269.44 625.743 2271.68 623.867 2272.54L610.223 2278.77C608.347 2279.62 606.111 2278.79 605.254 2276.91L599.801 2264.97C598.945 2263.1 596.709 2262.26 594.833 2263.12L592.445 2264.21C590.569 2265.07 589.735 2267.3 590.591 2269.18L607.727 2306.7C608.584 2308.58 607.75 2310.81 605.874 2311.67L592.229 2317.9C590.353 2318.76 588.117 2317.93 587.261 2316.05L570.125 2278.53C569.268 2276.65 567.032 2275.82 565.156 2276.67L562.768 2277.76Z" fill="white"/>
<path d="M540.666 2109.69C542.645 2109.11 544.739 2110.25 545.32 2112.23L549.546 2126.62C550.127 2128.6 548.984 2130.7 547.005 2131.28L525.911 2137.47C515.701 2140.47 504.996 2134.62 501.998 2124.41L492.78 2093.02C489.782 2082.81 495.628 2072.1 505.837 2069.11L562.058 2052.6C572.267 2049.6 582.973 2055.45 585.971 2065.66L593.221 2090.35C593.802 2092.33 595.896 2093.47 597.875 2092.89L619.824 2086.45C621.803 2085.86 622.946 2083.77 622.365 2081.79L610.744 2042.21C610.163 2040.23 611.307 2038.14 613.286 2037.56L627.678 2033.33C629.657 2032.75 631.751 2033.89 632.332 2035.87L650.293 2097.04C650.874 2099.02 649.73 2101.11 647.751 2101.7L597.513 2116.45C587.303 2119.44 576.598 2113.6 573.6 2103.39L566.35 2078.7C565.769 2076.72 563.674 2075.57 561.695 2076.16L518.878 2088.73C516.899 2089.31 515.755 2091.4 516.336 2093.38L521.619 2111.37C522.2 2113.35 524.294 2114.5 526.273 2113.91L540.666 2109.69Z" fill="white"/>
<path d="M593.562 1943.46L483.227 1959.32C472.695 1960.84 462.93 1953.53 461.416 1942.99L456.76 1910.61C455.339 1900.73 461.688 1891.53 471.152 1889.17C471.795 1889.03 472.438 1888.89 473.088 1888.8L494.848 1885.67C496.89 1885.37 498.8 1886.81 499.094 1888.85L501.228 1903.69C501.522 1905.74 500.092 1907.65 498.05 1907.94L483.203 1910.07C481.161 1910.37 479.731 1912.28 480.025 1914.32L482.693 1932.88C482.987 1934.92 484.897 1936.35 486.939 1936.06L520.345 1931.25C522.387 1930.96 523.817 1929.05 523.523 1927.01L519.861 1901.54C518.347 1891 525.656 1881.24 536.189 1879.72L583.422 1872.93C593.954 1871.42 603.719 1878.73 605.233 1889.26L609.889 1921.65C611.404 1932.18 604.094 1941.94 593.562 1943.46ZM586.624 1917.94L583.956 1899.38C583.662 1897.34 581.752 1895.9 579.71 1896.2L546.304 1901C544.262 1901.3 542.832 1903.21 543.126 1905.25L545.794 1923.81C546.088 1925.85 547.998 1927.28 550.04 1926.98L583.446 1922.18C585.488 1921.89 586.918 1919.98 586.624 1917.94Z" fill="white"/>
<path d="M451.75 1763.61H519.062C521.125 1763.61 522.813 1761.92 522.813 1759.86V1741.2C522.813 1739.09 521.125 1737.45 519.062 1737.45H499.609C497.547 1737.45 495.859 1735.76 495.859 1733.7V1718.75C495.859 1716.69 497.547 1715 499.609 1715H594.25C596.313 1715 598 1716.69 598 1718.75V1733.7C598 1735.76 596.313 1737.45 594.25 1737.45H549.016C546.953 1737.45 545.266 1739.09 545.266 1741.2V1782.31C545.266 1784.37 543.578 1786.06 541.516 1786.06H526.563C526.516 1786.06 526.469 1786.06 526.375 1786.06C526.281 1786.06 526.141 1786.06 526 1786.06H451.75C449.688 1786.06 448 1784.37 448 1782.31V1767.36C448 1765.3 449.688 1763.61 451.75 1763.61Z" fill="white"/>
<path d="M462.163 1578.15L528.791 1587.72C530.832 1588.02 532.743 1586.59 533.036 1584.55L535.691 1566.08C535.991 1563.99 534.555 1562.13 532.513 1561.83L513.258 1559.07C511.216 1558.77 509.786 1556.86 510.08 1554.82L512.208 1540.02C512.501 1537.98 514.412 1536.55 516.453 1536.84L610.131 1550.31C612.172 1550.6 613.602 1552.51 613.309 1554.56L611.181 1569.36C610.887 1571.4 608.977 1572.83 606.935 1572.53L562.161 1566.1C560.12 1565.8 558.216 1567.19 557.916 1569.28L552.065 1609.97C551.772 1612.01 549.861 1613.44 547.82 1613.14L533.019 1611.02C532.972 1611.01 532.926 1611 532.833 1610.99C532.74 1610.98 532.601 1610.96 532.462 1610.94L458.968 1600.37C456.926 1600.08 455.496 1598.17 455.79 1596.12L457.918 1581.32C458.211 1579.28 460.122 1577.85 462.163 1578.15Z" fill="white"/>
<path d="M491.204 1412.34L495.43 1397.95C496.011 1395.97 498.106 1394.82 500.085 1395.4L546.86 1409.14C548.839 1409.72 550.933 1408.58 551.515 1406.6L562.991 1367.51C565.989 1357.3 576.694 1351.46 586.904 1354.46L639.886 1370.01C650.095 1373.01 655.941 1383.72 652.943 1393.93L635.128 1454.6C634.547 1456.58 632.452 1457.72 630.473 1457.14L493.746 1416.99C491.767 1416.41 490.623 1414.32 491.204 1412.34ZM573.103 1412.94C572.522 1414.92 573.666 1417.01 575.645 1417.59L615.224 1429.21C617.203 1429.79 619.297 1428.65 619.878 1426.67L629.387 1394.29C629.968 1392.31 628.824 1390.21 626.845 1389.63L587.266 1378.01C585.287 1377.43 583.193 1378.57 582.612 1380.55L573.103 1412.94Z" fill="white"/>
<path d="M571.154 1241.22C561.475 1236.8 557.212 1225.38 561.632 1215.7L575.224 1185.93C579.644 1176.26 591.073 1171.99 600.752 1176.41L633.925 1191.56C640.96 1194.78 645.15 1201.74 645.175 1209.02C645.182 1209.79 645.627 1210.51 646.309 1210.82C646.991 1211.13 647.825 1211 648.416 1210.5C653.933 1205.75 661.939 1204.36 668.974 1207.57L702.147 1222.72C711.826 1227.14 716.089 1238.57 711.669 1248.25L698.077 1278.01C693.793 1287.39 682.911 1291.7 673.421 1287.88C673.103 1287.78 672.805 1287.65 672.549 1287.53L639.376 1272.38C632.341 1269.17 628.151 1262.2 628.126 1254.93C628.119 1254.15 627.674 1253.43 626.992 1253.12C626.31 1252.81 625.476 1252.94 624.885 1253.45C619.368 1258.19 611.362 1259.59 604.327 1256.37L571.154 1241.22ZM586.854 1223.66L617.554 1237.68C619.43 1238.54 621.666 1237.7 622.523 1235.83L630.312 1218.77C631.168 1216.89 630.334 1214.66 628.458 1213.8L597.758 1199.78C595.882 1198.92 593.646 1199.76 592.789 1201.63L585 1218.69C584.143 1220.57 584.977 1222.8 586.854 1223.66ZM675.543 1264.16C677.419 1265.02 679.655 1264.18 680.512 1262.31L688.301 1245.25C689.157 1243.38 688.323 1241.14 686.447 1240.28L655.747 1226.26C653.871 1225.41 651.635 1226.24 650.778 1228.12L642.989 1245.17C642.133 1247.05 642.967 1249.28 644.843 1250.14L675.543 1264.16Z" fill="white"/>
<path d="M674.537 1014.16C675.652 1012.42 677.984 1011.92 679.719 1013.03L692.338 1021.14C694.073 1022.26 694.581 1024.59 693.465 1026.32L683.937 1041.15C682.822 1042.88 683.329 1045.22 685.064 1046.33L707.147 1060.52C708.882 1061.64 711.214 1061.13 712.329 1059.4L720.033 1047.41C721.148 1045.67 723.48 1045.17 725.215 1046.28L737.834 1054.39C739.569 1055.51 740.076 1057.84 738.961 1059.57L731.257 1071.56C730.142 1073.3 730.649 1075.63 732.384 1076.74L786.014 1111.21C787.749 1112.32 788.257 1114.66 787.142 1116.39L779.032 1129.01C777.917 1130.74 775.585 1131.25 773.85 1130.14L720.22 1095.67C718.485 1094.56 716.153 1095.06 715.038 1096.8L709.361 1105.63C708.246 1107.37 705.914 1107.87 704.179 1106.76L691.56 1098.65C689.825 1097.53 689.318 1095.2 690.433 1093.47L696.11 1084.63C697.225 1082.9 696.718 1080.57 694.982 1079.45L667.024 1061.48C658.072 1055.73 655.48 1043.81 661.232 1034.86L674.537 1014.16Z" fill="white"/>
<path d="M767.026 894.774L776.849 883.438C778.2 881.879 780.58 881.709 782.139 883.06L789.791 889.69L801.127 899.513L889.833 976.378C891.392 977.728 891.562 980.109 890.211 981.667L880.389 993.004C879.038 994.562 876.657 994.733 875.099 993.382L792.061 921.429C790.502 920.078 788.122 920.249 786.771 921.807L778.176 931.727C776.825 933.285 774.445 933.456 772.886 932.105L761.55 922.282C759.991 920.931 759.821 918.551 761.172 916.992L769.767 907.073C771.117 905.514 770.947 903.134 769.388 901.783L767.404 900.064C765.846 898.714 765.675 896.333 767.026 894.774Z" fill="white"/>
<path d="M873.586 785.386L884.922 775.563C886.481 774.212 888.862 774.382 890.212 775.941L922.137 812.784C923.487 814.343 925.868 814.513 927.426 813.162L958.211 786.487C966.253 779.519 978.42 780.389 985.388 788.431L1021.55 830.162C1028.52 838.204 1027.65 850.37 1019.6 857.338L971.815 898.748C970.257 900.099 967.876 899.929 966.525 898.37L873.208 790.676C871.857 789.117 872.027 786.736 873.586 785.386ZM942.161 830.167C940.602 831.517 940.432 833.898 941.782 835.456L968.795 866.631C970.146 868.19 972.527 868.36 974.085 867.009L999.592 844.908C1001.15 843.557 1001.32 841.177 999.97 839.618L972.957 808.443C971.606 806.885 969.226 806.714 967.667 808.065L942.161 830.167Z" fill="white"/>
<path d="M1107.64 765.571L1155.4 734.881C1156.9 733.918 1158.91 734.355 1159.87 735.853C1165.62 744.805 1163.03 756.724 1154.08 762.476L1113.93 788.275C1104.98 794.028 1093.06 791.435 1087.31 782.484L1057.46 736.031C1051.7 727.079 1054.3 715.16 1063.25 709.408L1103.39 683.609C1112.34 677.856 1124.26 680.449 1130.02 689.4C1130.98 690.899 1130.54 692.907 1129.04 693.87L1081.29 724.56C1079.55 725.675 1079.05 728.007 1080.16 729.742L1102.46 764.444C1103.58 766.179 1105.91 766.686 1107.64 765.571Z" fill="white"/>
<path d="M1221.87 604.164C1222.72 606.04 1221.89 608.276 1220.01 609.133L1206.37 615.364C1204.49 616.221 1202.26 615.387 1201.4 613.51L1192.27 593.513C1187.85 583.834 1192.11 572.405 1201.79 567.985L1231.55 554.393C1241.23 549.973 1252.66 554.235 1257.08 563.914L1281.42 617.213C1285.84 626.892 1281.58 638.321 1271.9 642.741L1248.49 653.431C1246.61 654.288 1245.78 656.524 1246.64 658.4L1256.14 679.208C1257 681.084 1259.23 681.918 1261.11 681.062L1298.63 663.926C1300.51 663.069 1302.74 663.903 1303.6 665.779L1309.83 679.423C1310.69 681.3 1309.85 683.536 1307.98 684.392L1249.99 710.875C1248.11 711.732 1245.88 710.898 1245.02 709.022L1223.27 661.394C1218.85 651.715 1223.11 640.286 1232.79 635.866L1256.2 625.176C1258.07 624.319 1258.91 622.083 1258.05 620.207L1239.51 579.614C1238.66 577.738 1236.42 576.904 1234.55 577.761L1217.49 585.55C1215.61 586.407 1214.78 588.643 1215.64 590.519L1221.87 604.164Z" fill="white"/>
<path d="M1390.31 540.666C1390.89 542.645 1389.75 544.739 1387.77 545.32L1373.38 549.546C1371.4 550.127 1369.3 548.984 1368.72 547.005L1362.53 525.911C1359.53 515.701 1365.38 504.996 1375.59 501.998L1406.98 492.78C1417.19 489.782 1427.9 495.628 1430.89 505.837L1447.4 562.058C1450.4 572.267 1444.55 582.973 1434.34 585.971L1409.65 593.221C1407.67 593.802 1406.53 595.896 1407.11 597.875L1413.55 619.824C1414.14 621.803 1416.23 622.946 1418.21 622.365L1457.79 610.744C1459.77 610.163 1461.86 611.307 1462.44 613.286L1466.67 627.678C1467.25 629.657 1466.11 631.751 1464.13 632.332L1402.96 650.293C1400.98 650.874 1398.89 649.73 1398.31 647.751L1383.55 597.513C1380.56 587.303 1386.4 576.598 1396.61 573.6L1421.3 566.35C1423.28 565.769 1424.43 563.674 1423.85 561.695L1411.27 518.878C1410.69 516.899 1408.6 515.755 1406.62 516.336L1388.63 521.619C1386.65 522.2 1385.5 524.294 1386.09 526.273L1390.31 540.666Z" fill="white"/>
<path d="M1578.1 462.172C1577.8 460.131 1579.23 458.22 1581.28 457.927L1596.12 455.792C1598.16 455.498 1600.07 456.929 1600.37 458.97L1620.65 600.02C1620.94 602.061 1619.51 603.972 1617.47 604.265L1602.62 606.4C1600.58 606.693 1598.67 605.263 1598.38 603.222L1587.38 526.758C1587.09 524.716 1585.18 523.286 1583.14 523.58L1570.15 525.448C1568.1 525.741 1566.19 524.311 1565.9 522.27L1563.77 507.422C1563.47 505.381 1564.9 503.47 1566.94 503.177L1579.94 501.309C1581.98 501.015 1583.41 499.105 1583.11 497.063L1582.74 494.465C1582.45 492.424 1580.54 490.993 1578.49 491.287L1537.66 497.157C1535.62 497.451 1533.71 496.021 1533.42 493.979L1531.28 479.132C1530.99 477.09 1532.42 475.18 1534.46 474.886L1575.29 469.016C1577.33 468.722 1578.76 466.812 1578.47 464.77L1578.1 462.172Z" fill="white"/>
<path d="M1737.33 451.687V518.999C1737.33 521.062 1739.02 522.749 1741.08 522.749H1759.73C1761.84 522.749 1763.48 521.062 1763.48 518.999V499.546C1763.48 497.483 1765.17 495.796 1767.23 495.796H1782.19C1784.25 495.796 1785.94 497.483 1785.94 499.546L1785.94 594.187C1785.94 596.249 1784.25 597.937 1782.19 597.937H1767.23C1765.17 597.937 1763.48 596.249 1763.48 594.187V548.952C1763.48 546.89 1761.84 545.202 1759.73 545.202H1718.62C1716.56 545.202 1714.88 543.515 1714.88 541.452L1714.88 526.499C1714.88 526.452 1714.88 526.405 1714.88 526.312C1714.88 526.218 1714.88 526.077 1714.88 525.937V451.687C1714.88 449.624 1716.56 447.937 1718.62 447.937H1733.58C1735.64 447.937 1737.33 449.624 1737.33 451.687Z" fill="white"/>
<path d="M1921.86 462.163L1912.28 528.791C1911.98 530.832 1913.41 532.743 1915.45 533.036L1933.92 535.691C1936.01 535.991 1937.87 534.555 1938.17 532.513L1940.93 513.258C1941.23 511.216 1943.14 509.786 1945.18 510.08L1959.98 512.208C1962.02 512.501 1963.45 514.412 1963.16 516.453L1949.69 610.131C1949.4 612.172 1947.49 613.602 1945.44 613.309L1930.64 611.181C1928.6 610.887 1927.17 608.977 1927.47 606.935L1933.9 562.161C1934.2 560.12 1932.81 558.216 1930.72 557.916L1890.03 552.065C1887.99 551.772 1886.56 549.861 1886.86 547.82L1888.98 533.019C1888.99 532.972 1889 532.926 1889.01 532.833C1889.02 532.74 1889.04 532.601 1889.06 532.462L1899.63 458.968C1899.92 456.926 1901.83 455.496 1903.88 455.79L1918.68 457.918C1920.72 458.211 1922.15 460.122 1921.86 462.163Z" fill="white"/>
<path d="M2085.83 510.746C2088.83 500.536 2099.54 494.691 2109.75 497.689L2141.14 506.907C2151.35 509.904 2157.19 520.61 2154.2 530.82L2143.92 565.811C2141.74 573.232 2135.45 578.37 2128.25 579.431C2127.48 579.548 2126.83 580.09 2126.62 580.81C2126.41 581.529 2126.66 582.336 2127.24 582.849C2132.73 587.635 2135.25 595.36 2133.07 602.782L2122.79 637.773C2119.79 647.983 2109.09 653.828 2098.88 650.83L2067.49 641.613C2057.59 638.707 2051.78 628.549 2054.21 618.612C2054.26 618.284 2054.35 617.969 2054.43 617.7L2064.7 582.708C2066.88 575.287 2073.18 570.15 2080.38 569.088C2081.14 568.971 2081.79 568.429 2082 567.709C2082.21 566.99 2081.96 566.183 2081.38 565.67C2075.9 560.884 2073.38 553.159 2075.56 545.738L2085.83 510.746ZM2105.45 523.787L2095.94 556.169C2095.36 558.148 2096.51 560.243 2098.49 560.824L2116.48 566.106C2118.46 566.688 2120.55 565.544 2121.13 563.565L2130.64 531.182C2131.22 529.203 2130.08 527.108 2128.1 526.527L2110.11 521.245C2108.13 520.664 2106.03 521.808 2105.45 523.787ZM2077.98 617.337C2077.4 619.316 2078.55 621.411 2080.53 621.992L2098.52 627.274C2100.5 627.855 2102.59 626.712 2103.17 624.733L2112.68 592.35C2113.26 590.371 2112.12 588.276 2110.14 587.695L2092.15 582.413C2090.17 581.832 2088.07 582.975 2087.49 584.954L2077.98 617.337Z" fill="white"/>
<path d="M2325.3 580.764C2327.17 581.621 2328.01 583.857 2327.15 585.733L2320.92 599.377C2320.06 601.253 2317.83 602.087 2315.95 601.231L2299.92 593.909C2298.04 593.052 2295.81 593.886 2294.95 595.762L2284.04 619.64C2283.19 621.516 2284.02 623.752 2285.9 624.609L2298.86 630.529C2300.74 631.385 2301.57 633.621 2300.71 635.498L2294.48 649.142C2293.63 651.018 2291.39 651.852 2289.51 650.995L2276.55 645.076C2274.68 644.219 2272.44 645.053 2271.58 646.929L2245.1 704.918C2244.24 706.794 2242.01 707.628 2240.13 706.771L2226.49 700.54C2224.61 699.683 2223.78 697.447 2224.63 695.571L2251.12 637.582C2251.97 635.706 2251.14 633.47 2249.26 632.613L2239.71 628.251C2237.83 627.395 2237 625.159 2237.86 623.282L2244.09 609.638C2244.95 607.762 2247.18 606.928 2249.06 607.785L2258.61 612.146C2260.49 613.003 2262.72 612.169 2263.58 610.293L2277.38 580.062C2281.8 570.383 2293.23 566.12 2302.91 570.541L2325.3 580.764Z" fill="white"/>
<path d="M2485.84 674.537C2487.58 675.653 2488.08 677.984 2486.97 679.72L2478.86 692.338C2477.74 694.073 2475.41 694.581 2473.68 693.466L2458.85 683.937C2457.11 682.822 2454.78 683.329 2453.67 685.064L2439.48 707.147C2438.36 708.882 2438.87 711.214 2440.6 712.329L2452.59 720.033C2454.33 721.148 2454.83 723.48 2453.72 725.215L2445.61 737.834C2444.49 739.569 2442.16 740.077 2440.43 738.962L2428.44 731.257C2426.7 730.142 2424.37 730.65 2423.26 732.385L2388.79 786.015C2387.68 787.75 2385.34 788.257 2383.61 787.142L2370.99 779.032C2369.26 777.917 2368.75 775.585 2369.86 773.85L2404.33 720.22C2405.44 718.485 2404.94 716.153 2403.2 715.038L2394.37 709.361C2392.63 708.246 2392.13 705.914 2393.24 704.179L2401.35 691.561C2402.47 689.825 2404.8 689.318 2406.53 690.433L2415.37 696.11C2417.1 697.225 2419.43 696.718 2420.55 694.983L2438.52 667.024C2444.27 658.073 2456.19 655.48 2465.14 661.233L2485.84 674.537Z" fill="white"/>
<path d="M2610.7 776.735C2612.06 775.176 2614.44 775.006 2615.99 776.357L2627.33 786.18C2628.89 787.53 2629.06 789.911 2627.71 791.469L2534.39 899.164C2533.04 900.722 2530.66 900.893 2529.1 899.542L2517.77 889.719C2516.21 888.368 2516.04 885.988 2517.39 884.429L2567.98 826.048C2569.33 824.489 2569.16 822.108 2567.6 820.758L2557.68 812.163C2556.12 810.812 2555.95 808.432 2557.3 806.873L2567.12 795.537C2568.47 793.978 2570.85 793.808 2572.41 795.158L2582.33 803.753C2583.89 805.104 2586.27 804.934 2587.62 803.375L2589.34 801.391C2590.69 799.833 2590.52 797.452 2588.96 796.101L2557.79 769.088C2556.23 767.738 2556.06 765.357 2557.41 763.799L2567.23 752.462C2568.58 750.904 2570.96 750.733 2572.52 752.084L2603.7 779.097C2605.25 780.448 2607.64 780.278 2608.99 778.719L2610.7 776.735Z" fill="white"/>
<path d="M2749.17 942.884L2664.93 1015.88C2656.88 1022.85 2644.72 1021.98 2637.75 1013.94L2616.32 989.209C2609.79 981.664 2610.15 970.491 2616.84 963.393C2617.31 962.928 2617.77 962.463 2618.27 962.033L2634.88 947.636C2636.44 946.286 2638.82 946.456 2640.17 948.015L2649.99 959.351C2651.35 960.91 2651.18 963.29 2649.62 964.641L2638.28 974.464C2636.72 975.814 2636.55 978.195 2637.9 979.753L2650.18 993.924C2651.53 995.482 2653.91 995.653 2655.47 994.302L2680.98 972.2C2682.54 970.85 2682.71 968.469 2681.36 966.911L2664.5 947.462C2657.53 939.42 2658.4 927.254 2666.45 920.286L2702.51 889.037C2710.55 882.068 2722.72 882.939 2729.69 890.98L2751.11 915.707C2758.08 923.749 2757.21 935.916 2749.17 942.884ZM2729.53 925.163L2717.26 910.993C2715.91 909.434 2713.52 909.264 2711.97 910.615L2686.46 932.716C2684.9 934.067 2684.73 936.447 2686.08 938.006L2698.36 952.176C2699.71 953.735 2702.09 953.905 2703.65 952.555L2729.16 930.453C2730.71 929.102 2730.88 926.722 2729.53 925.163Z" fill="white"/>
<path d="M2752.23 1100.67L2739.61 1108.78C2737.87 1109.89 2737.37 1112.22 2738.48 1113.96L2748.62 1129.73C2749.73 1131.47 2752.07 1131.97 2753.8 1130.86L2791.34 1106.73C2793.08 1105.62 2793.58 1103.28 2792.47 1101.55L2778.56 1079.9C2778.51 1079.82 2778.43 1079.7 2778.35 1079.59C2778.33 1079.55 2778.3 1079.51 2778.28 1079.47L2770.17 1066.85C2769.05 1065.11 2769.56 1062.78 2771.29 1061.67L2828.4 1024.97C2830.13 1023.85 2832.46 1024.36 2833.58 1026.1L2868.04 1079.73C2869.16 1081.46 2868.65 1083.79 2866.92 1084.91L2854.3 1093.02C2852.56 1094.13 2850.23 1093.63 2849.11 1091.89L2826.81 1057.19C2825.7 1055.45 2823.37 1054.95 2821.63 1056.06L2802.39 1068.43C2800.65 1069.54 2800.15 1071.88 2801.26 1073.61L2815.17 1095.26C2820.93 1104.21 2818.33 1116.13 2809.38 1121.88L2760.09 1153.56C2751.14 1159.31 2739.22 1156.72 2733.47 1147.77L2715.78 1120.25C2710.02 1111.29 2712.62 1099.38 2721.57 1093.62L2740.06 1081.74C2741.8 1080.62 2744.13 1081.13 2745.25 1082.86L2753.36 1095.48C2754.47 1097.22 2753.96 1099.55 2752.23 1100.67Z" fill="white"/>
<path d="M2936.28 1211.13L2942.51 1224.77C2943.37 1226.65 2942.54 1228.88 2940.66 1229.74L2931.45 1233.95L2917.8 1240.18L2811.04 1288.94C2809.16 1289.79 2806.92 1288.96 2806.07 1287.08L2799.84 1273.44C2798.98 1271.56 2799.81 1269.33 2801.69 1268.47L2901.64 1222.83C2903.51 1221.97 2904.35 1219.73 2903.49 1217.86L2898.04 1205.92C2897.18 1204.04 2898.01 1201.81 2899.89 1200.95L2913.53 1194.72C2915.41 1193.86 2917.65 1194.7 2918.5 1196.57L2923.96 1208.51C2924.81 1210.39 2927.05 1211.22 2928.92 1210.37L2931.31 1209.27C2933.19 1208.42 2935.42 1209.25 2936.28 1211.13Z" fill="white"/>
<path d="M2994.17 1430.89L2887.21 1462.3C2877 1465.3 2866.3 1459.45 2863.3 1449.24L2854.08 1417.85C2851.27 1408.27 2856.24 1398.26 2865.28 1394.58C2865.89 1394.35 2866.51 1394.12 2867.14 1393.93L2888.23 1387.74C2890.21 1387.16 2892.31 1388.3 2892.89 1390.28L2897.11 1404.67C2897.7 1406.65 2896.55 1408.75 2894.57 1409.33L2880.18 1413.55C2878.2 1414.14 2877.06 1416.23 2877.64 1418.21L2882.92 1436.2C2883.5 1438.18 2885.6 1439.32 2887.58 1438.74L2919.96 1429.23C2921.94 1428.65 2923.08 1426.56 2922.5 1424.58L2915.25 1399.89C2912.25 1389.68 2918.1 1378.97 2928.31 1375.97L2974.09 1362.53C2984.3 1359.53 2995.01 1365.38 2998.01 1375.59L3007.22 1406.98C3010.22 1417.19 3004.38 1427.9 2994.17 1430.89ZM2983.67 1406.62L2978.39 1388.63C2977.8 1386.65 2975.71 1385.5 2973.73 1386.09L2941.35 1395.59C2939.37 1396.18 2938.23 1398.27 2938.81 1400.25L2944.09 1418.24C2944.67 1420.22 2946.76 1421.36 2948.74 1420.78L2981.13 1411.27C2983.11 1410.69 2984.25 1408.6 2983.67 1406.62Z" fill="white"/>
<path d="M3037.83 1578.1C3039.87 1577.8 3041.78 1579.23 3042.08 1581.28L3044.21 1596.12C3044.51 1598.16 3043.08 1600.07 3041.03 1600.37L2899.98 1620.65C2897.94 1620.94 2896.03 1619.51 2895.74 1617.47L2893.6 1602.62C2893.31 1600.58 2894.74 1598.67 2896.78 1598.38L2973.25 1587.38C2975.29 1587.09 2976.72 1585.18 2976.42 1583.14L2974.56 1570.15C2974.26 1568.1 2975.69 1566.19 2977.73 1565.9L2992.58 1563.77C2994.62 1563.47 2996.53 1564.9 2996.83 1566.94L2998.7 1579.94C2998.99 1581.98 3000.9 1583.41 3002.94 1583.11L3005.54 1582.74C3007.58 1582.45 3009.01 1580.54 3008.72 1578.49L3002.85 1537.66C3002.55 1535.62 3003.98 1533.71 3006.02 1533.42L3020.87 1531.28C3022.91 1530.99 3024.82 1532.42 3025.12 1534.46L3030.99 1575.29C3031.28 1577.33 3033.19 1578.76 3035.23 1578.47L3037.83 1578.1Z" fill="white"/>
<path d="M2934.87 1729.31H2929.25C2927.19 1729.31 2925.5 1731 2925.5 1733.06V1789.31C2925.5 1791.37 2923.81 1793.06 2921.75 1793.06H2906.75C2904.69 1793.06 2903 1791.37 2903 1789.31V1726.08C2903 1715.44 2911.62 1706.81 2922.27 1706.81H2977.48C2978.8 1706.81 2980.11 1706.95 2981.33 1707.19C2990.14 1709.01 2996.75 1716.8 2996.75 1726.08V1773.8C2996.75 1784.44 2988.12 1793.06 2977.48 1793.06H2942.37C2940.31 1793.06 2938.62 1791.37 2938.62 1789.31V1733.06C2938.62 1731 2936.94 1729.31 2934.87 1729.31ZM2970.5 1770.56C2972.56 1770.56 2974.25 1768.87 2974.25 1766.81V1733.06C2974.25 1731 2972.56 1729.31 2970.5 1729.31H2964.87C2962.81 1729.31 2961.12 1731 2961.12 1733.06V1766.81C2961.12 1768.87 2962.81 1770.56 2964.87 1770.56H2970.5Z" fill="white"/>
<path d="M3037.84 1921.85L2971.21 1912.28C2969.17 1911.98 2967.26 1913.41 2966.96 1915.45L2964.31 1933.92C2964.01 1936.01 2965.45 1937.87 2967.49 1938.17L2986.74 1940.93C2988.78 1941.23 2990.21 1943.14 2989.92 1945.18L2987.79 1959.98C2987.5 1962.02 2985.59 1963.45 2983.55 1963.16L2889.87 1949.69C2887.83 1949.4 2886.4 1947.49 2886.69 1945.44L2888.82 1930.64C2889.11 1928.6 2891.02 1927.17 2893.06 1927.47L2937.84 1933.9C2939.88 1934.2 2941.78 1932.81 2942.08 1930.72L2947.93 1890.03C2948.23 1887.99 2950.14 1886.56 2952.18 1886.86L2966.98 1888.98C2967.03 1888.99 2967.07 1889 2967.17 1889.01C2967.26 1889.02 2967.4 1889.04 2967.54 1889.06L3041.03 1899.63C3043.07 1899.92 3044.5 1901.83 3044.21 1903.88L3042.08 1918.68C3041.79 1920.72 3039.88 1922.15 3037.84 1921.85Z" fill="white"/>
<path d="M2989.25 2085.83C2999.46 2088.83 3005.31 2099.54 3002.31 2109.75L2993.09 2141.14C2990.1 2151.35 2979.39 2157.19 2969.18 2154.2L2934.19 2143.92C2926.77 2141.74 2921.63 2135.45 2920.57 2128.25C2920.45 2127.48 2919.91 2126.83 2919.19 2126.62C2918.47 2126.41 2917.66 2126.66 2917.15 2127.24C2912.37 2132.73 2904.64 2135.25 2897.22 2133.07L2862.23 2122.79C2852.02 2119.79 2846.17 2109.09 2849.17 2098.88L2858.39 2067.49C2861.29 2057.59 2871.45 2051.78 2881.39 2054.21C2881.72 2054.26 2882.03 2054.35 2882.3 2054.43L2917.29 2064.7C2924.71 2066.88 2929.85 2073.18 2930.91 2080.38C2931.03 2081.14 2931.57 2081.79 2932.29 2082C2933.01 2082.21 2933.82 2081.96 2934.33 2081.38C2939.12 2075.9 2946.84 2073.38 2954.26 2075.56L2989.25 2085.83ZM2976.21 2105.45L2943.83 2095.94C2941.85 2095.36 2939.76 2096.51 2939.18 2098.49L2933.89 2116.48C2933.31 2118.46 2934.46 2120.55 2936.44 2121.13L2968.82 2130.64C2970.8 2131.22 2972.89 2130.08 2973.47 2128.1L2978.76 2110.11C2979.34 2108.13 2978.19 2106.03 2976.21 2105.45ZM2882.66 2077.98C2880.68 2077.4 2878.59 2078.55 2878.01 2080.53L2872.73 2098.52C2872.14 2100.5 2873.29 2102.59 2875.27 2103.17L2907.65 2112.68C2909.63 2113.26 2911.72 2112.12 2912.3 2110.14L2917.59 2092.15C2918.17 2090.17 2917.02 2088.07 2915.05 2087.49L2882.66 2077.98Z" fill="white"/>
<path d="M2938.71 2269.11C2938.88 2269.54 2939.04 2269.98 2939.18 2270.46C2940.62 2274.87 2940.43 2279.79 2938.37 2284.31L2924.78 2314.07C2920.36 2323.75 2908.93 2328.01 2899.25 2323.59L2797.85 2277.29C2788.17 2272.87 2783.91 2261.44 2788.33 2251.76L2801.92 2222C2802.2 2221.4 2802.51 2220.82 2802.83 2220.24C2807.75 2211.83 2818.37 2208.33 2827.45 2212.48L2928.85 2258.78C2933.49 2260.9 2936.92 2264.68 2938.71 2269.11ZM2902.24 2300.22C2904.12 2301.08 2906.35 2300.25 2907.21 2298.37L2915 2281.32C2915.86 2279.44 2915.02 2277.2 2913.15 2276.35L2824.46 2235.84C2822.58 2234.99 2820.35 2235.82 2819.49 2237.7L2811.7 2254.75C2810.84 2256.63 2811.68 2258.86 2813.55 2259.72L2902.24 2300.22Z" fill="white"/>
<path d="M2805.92 2481.3L2712.15 2421.04C2703.2 2415.29 2700.6 2403.37 2706.36 2394.42L2724.05 2366.89C2729.44 2358.49 2740.27 2355.7 2748.96 2360.11C2749.54 2360.43 2750.12 2360.75 2750.67 2361.1L2769.16 2372.99C2770.9 2374.1 2771.41 2376.43 2770.29 2378.17L2762.18 2390.79C2761.07 2392.52 2758.73 2393.03 2757 2391.91L2744.38 2383.8C2742.64 2382.69 2740.31 2383.2 2739.2 2384.93L2729.06 2400.7C2727.95 2402.44 2728.45 2404.77 2730.19 2405.89L2758.58 2424.13C2760.32 2425.25 2762.65 2424.74 2763.76 2423.01L2777.68 2401.36C2783.43 2392.41 2795.35 2389.81 2804.3 2395.57L2844.44 2421.36C2853.39 2427.12 2855.99 2439.04 2850.23 2447.99L2832.54 2475.51C2826.79 2484.46 2814.87 2487.06 2805.92 2481.3ZM2817.39 2457.47L2827.53 2441.7C2828.64 2439.96 2828.14 2437.63 2826.4 2436.52L2798.01 2418.27C2796.27 2417.15 2793.94 2417.66 2792.83 2419.4L2782.69 2435.17C2781.58 2436.91 2782.08 2439.24 2783.82 2440.35L2812.21 2458.6C2813.95 2459.71 2816.28 2459.21 2817.39 2457.47Z" fill="white"/>
<path d="M2712.11 2566.31C2710.56 2564.96 2710.38 2562.58 2711.74 2561.02L2721.56 2549.69C2722.91 2548.13 2725.29 2547.96 2726.85 2549.31L2743.46 2563.7C2751.5 2570.67 2752.37 2582.84 2745.41 2590.88L2723.98 2615.61C2717.01 2623.65 2704.85 2624.52 2696.8 2617.55L2669.24 2593.67C2664.64 2589.68 2662.37 2583.93 2662.62 2578.26C2662.7 2576.96 2662.24 2575.69 2661.25 2574.83L2659.9 2573.67C2658.91 2572.81 2657.6 2572.54 2656.32 2572.79C2650.75 2573.86 2644.73 2572.43 2640.12 2568.44L2612.56 2544.55C2604.52 2537.59 2603.65 2525.42 2610.62 2517.38L2632.04 2492.65C2639.01 2484.61 2651.18 2483.74 2659.22 2490.71L2675.84 2505.1C2677.39 2506.45 2677.56 2508.84 2676.21 2510.39L2666.39 2521.73C2665.04 2523.29 2662.66 2523.46 2661.1 2522.11L2649.76 2512.29C2648.21 2510.93 2645.83 2511.11 2644.47 2512.66L2632.2 2526.83C2630.85 2528.39 2631.02 2530.77 2632.57 2532.12L2658.08 2554.23C2659.64 2555.58 2662.02 2555.41 2663.37 2553.85L2680.07 2534.58C2681.42 2533.02 2683.8 2532.85 2685.36 2534.2L2696.7 2544.02C2698.25 2545.37 2698.42 2547.75 2697.07 2549.31L2680.38 2568.58C2679.02 2570.14 2679.19 2572.52 2680.75 2573.87L2706.26 2595.97C2707.82 2597.32 2710.2 2597.15 2711.55 2595.59L2723.83 2581.42C2725.18 2579.87 2725.01 2577.49 2723.45 2576.13L2712.11 2566.31Z" fill="white"/>
<path d="M2574.59 2759.03C2573.03 2760.38 2570.65 2760.21 2569.3 2758.65L2559.48 2747.31C2558.13 2745.75 2558.3 2743.37 2559.85 2742.02L2573.17 2730.48C2574.73 2729.13 2574.9 2726.75 2573.55 2725.19L2556.36 2705.35C2555.01 2703.79 2552.63 2703.62 2551.07 2704.98L2540.3 2714.31C2538.74 2715.66 2536.36 2715.49 2535.01 2713.93L2525.19 2702.59C2523.84 2701.03 2524.01 2698.65 2525.57 2697.3L2536.34 2687.97C2537.9 2686.62 2538.07 2684.24 2536.72 2682.68L2494.97 2634.5C2493.62 2632.94 2493.79 2630.56 2495.35 2629.21L2506.68 2619.39C2508.24 2618.04 2510.62 2618.21 2511.97 2619.77L2553.72 2667.95C2555.07 2669.51 2557.45 2669.68 2559.01 2668.33L2566.95 2661.45C2568.51 2660.1 2570.89 2660.27 2572.24 2661.83L2582.06 2673.16C2583.41 2674.72 2583.24 2677.1 2581.68 2678.45L2573.75 2685.33C2572.19 2686.68 2572.02 2689.06 2573.37 2690.62L2595.13 2715.74C2602.1 2723.78 2601.23 2735.94 2593.19 2742.91L2574.59 2759.03Z" fill="white"/>
<path d="M2390.35 2728.23C2394.35 2734.46 2395.64 2739.81 2394.24 2744.28C2392.83 2748.75 2390.03 2752.33 2385.82 2755.04C2381.44 2757.85 2376.93 2758.96 2372.28 2758.39C2367.46 2757.92 2363.05 2754.57 2359.05 2748.34C2355.16 2742.29 2353.95 2736.89 2355.41 2732.14C2356.71 2727.5 2359.55 2723.78 2363.92 2720.96C2368.13 2718.26 2372.61 2717.28 2377.37 2718.03C2382.13 2718.77 2386.45 2722.18 2390.35 2728.23Z" fill="white"/>
<path d="M2253.71 2886.38C2254.57 2888.26 2253.74 2890.49 2251.86 2891.35L2238.22 2897.58C2236.34 2898.44 2234.11 2897.6 2233.25 2895.73L2197.42 2817.27C2196.56 2815.4 2197.4 2813.16 2199.27 2812.3L2212.92 2806.07C2214.79 2805.22 2217.03 2806.05 2217.89 2807.93L2241.25 2859.09C2242.11 2860.97 2244.35 2861.8 2246.22 2860.95L2264.64 2852.53C2266.52 2851.68 2267.35 2849.44 2266.49 2847.56L2243.13 2796.4C2242.27 2794.52 2243.1 2792.29 2244.98 2791.43L2258.63 2785.2C2260.5 2784.34 2262.74 2785.17 2263.59 2787.05L2299.42 2865.51C2300.28 2867.38 2299.45 2869.62 2297.57 2870.48L2283.93 2876.71C2282.05 2877.56 2279.81 2876.73 2278.96 2874.85C2278.1 2872.98 2275.86 2872.14 2273.99 2873L2255.57 2881.41C2253.69 2882.27 2252.86 2884.51 2253.71 2886.38Z" fill="white"/>
<path d="M2103.59 2881.01L2102 2875.61C2101.42 2873.63 2099.33 2872.49 2097.35 2873.07L2043.38 2888.91C2041.4 2889.5 2039.3 2888.35 2038.72 2886.37L2034.5 2871.98C2033.92 2870 2035.06 2867.91 2037.04 2867.33L2097.71 2849.51C2107.92 2846.51 2118.63 2852.36 2121.62 2862.57L2137.18 2915.55C2137.55 2916.81 2137.79 2918.11 2137.9 2919.34C2138.63 2928.31 2133.03 2936.85 2124.12 2939.46L2078.34 2952.91C2068.13 2955.9 2057.42 2950.06 2054.42 2939.85L2044.53 2906.16C2043.95 2904.18 2045.1 2902.09 2047.08 2901.51L2101.05 2885.66C2103.03 2885.08 2104.17 2882.98 2103.59 2881.01ZM2074.05 2926.81C2074.63 2928.79 2076.72 2929.93 2078.7 2929.35L2111.08 2919.84C2113.06 2919.26 2114.21 2917.17 2113.62 2915.19L2112.04 2909.79C2111.46 2907.81 2109.36 2906.67 2107.39 2907.25L2075 2916.76C2073.02 2917.34 2071.88 2919.43 2072.46 2921.41L2074.05 2926.81Z" fill="white"/>
<path d="M1934.23 3039.85L1919.38 3041.98C1917.34 3042.27 1915.43 3040.84 1915.13 3038.8L1908.2 2990.55C1907.9 2988.51 1905.99 2987.08 1903.95 2987.37L1899.12 2988.06C1897.08 2988.36 1895.17 2986.93 1894.88 2984.89L1892.74 2970.04C1892.45 2968 1893.88 2966.09 1895.92 2965.79L1900.75 2965.1C1902.79 2964.81 1904.22 2962.9 1903.93 2960.85L1894.85 2897.75C1894.56 2895.71 1895.99 2893.8 1898.03 2893.51L1912.88 2891.37C1914.92 2891.08 1916.83 2892.51 1917.12 2894.55L1926.2 2957.65C1926.49 2959.69 1928.4 2961.12 1930.44 2960.83L1935.64 2960.08C1937.68 2959.79 1939.59 2961.22 1939.88 2963.26L1942.02 2978.11C1942.31 2980.15 1940.88 2982.06 1938.84 2982.35L1933.64 2983.1C1931.6 2983.39 1930.17 2985.3 1930.47 2987.35L1937.4 3035.6C1937.7 3037.64 1936.27 3039.55 1934.23 3039.85Z" fill="white"/>
</svg>
